<svg xmlns="http://www.w3.org/2000/svg" width="600" height="99" viewBox="0 0 600 99">
  <defs>
    <style>
      .cls-1 {
        fill: #fff;
      }
    </style>
  </defs>
  <title>logo</title>
  <g id="Layer_2" data-name="Layer 2">
    <g>
      <path class="cls-1" d="M31.1,78.85,16.71,24.55V83.39q0,4.88-2.29,7.32a8,8,0,0,1-6.09,2.45,8,8,0,0,1-6-2.42C.77,89.13,0,86.68,0,83.39V16q0-5.58,3.06-7.53a15.27,15.27,0,0,1,8.27-1.95H17a22.57,22.57,0,0,1,7.37.87,6.05,6.05,0,0,1,3.4,3.14,47.06,47.06,0,0,1,2.51,7.39l13,46.68,13-46.68a47.06,47.06,0,0,1,2.51-7.39,6.05,6.05,0,0,1,3.4-3.14,22.53,22.53,0,0,1,7.37-.87h5.64a15.25,15.25,0,0,1,8.26,2q3.06,2,3.06,7.53V83.39c0,3.25-.76,5.69-2.3,7.32a8,8,0,0,1-6.15,2.45,7.86,7.86,0,0,1-5.94-2.45q-2.33-2.44-2.32-7.32V24.55L55.46,78.85q-1.41,5.3-2.29,7.76a10.83,10.83,0,0,1-3.28,4.51,9.84,9.84,0,0,1-6.61,2,10.42,10.42,0,0,1-5.39-1.31,9.75,9.75,0,0,1-3.43-3.35A18.61,18.61,0,0,1,32.54,84C32.07,82.35,31.59,80.64,31.1,78.85Z"/>
      <path class="cls-1" d="M139.48,5.74q13.23,0,22.72,5.38a34.84,34.84,0,0,1,14.37,15.29q4.88,9.92,4.88,23.29a57.06,57.06,0,0,1-2.67,18,38.83,38.83,0,0,1-8,14,35,35,0,0,1-13.12,9.07,47.42,47.42,0,0,1-17.83,3.14,47,47,0,0,1-17.88-3.23,35.47,35.47,0,0,1-13.17-9.09,38.87,38.87,0,0,1-8-14.13,57.16,57.16,0,0,1-2.7-17.85,55.06,55.06,0,0,1,2.82-18,38.6,38.6,0,0,1,8.16-14,35.28,35.28,0,0,1,13-8.81A46.85,46.85,0,0,1,139.48,5.74ZM164,49.58a40.07,40.07,0,0,0-3-16.22A22.63,22.63,0,0,0,152.34,23a23.75,23.75,0,0,0-12.86-3.52,23.2,23.2,0,0,0-9.55,1.95,21,21,0,0,0-7.55,5.67,27,27,0,0,0-5,9.5,43,43,0,0,0-1.83,13,44.11,44.11,0,0,0,1.83,13.14,27,27,0,0,0,5.16,9.74,21.8,21.8,0,0,0,7.67,5.78,23.09,23.09,0,0,0,9.49,1.92,23.36,23.36,0,0,0,12.16-3.31,22.89,22.89,0,0,0,8.83-10.24Q164,59.7,164,49.58Z"/>
      <path class="cls-1" d="M233.64,5.74q13.23,0,22.73,5.38a34.84,34.84,0,0,1,14.37,15.29q4.88,9.92,4.87,23.29a57.06,57.06,0,0,1-2.67,18,38.83,38.83,0,0,1-8,14,35,35,0,0,1-13.12,9.07A47.41,47.41,0,0,1,234,93.88a46.9,46.9,0,0,1-17.88-3.23,35.43,35.43,0,0,1-13.18-9.09,39,39,0,0,1-8-14.13,57.16,57.16,0,0,1-2.7-17.85,55.33,55.33,0,0,1,2.81-18,38.75,38.75,0,0,1,8.16-14,35.28,35.28,0,0,1,13-8.81A46.89,46.89,0,0,1,233.64,5.74Zm24.5,43.84a40.06,40.06,0,0,0-3-16.22A22.57,22.57,0,0,0,246.5,23a23.73,23.73,0,0,0-12.86-3.52,23.2,23.2,0,0,0-9.55,1.95,21,21,0,0,0-7.55,5.67,27.12,27.12,0,0,0-5,9.5,43,43,0,0,0-1.83,13,44.11,44.11,0,0,0,1.83,13.14,27,27,0,0,0,5.17,9.74,21.77,21.77,0,0,0,7.66,5.78A24.17,24.17,0,0,0,246,76.85a22.89,22.89,0,0,0,8.83-10.24Q258.13,59.7,258.14,49.58Z"/>
      <path class="cls-1" d="M364.56,65.51a22,22,0,0,1-2.09,8.81,31.81,31.81,0,0,1-6.58,9.3A33.69,33.69,0,0,1,344.43,91a42.78,42.78,0,0,1-16.26,2.85,59.25,59.25,0,0,1-12.79-1.28,36.81,36.81,0,0,1-10.46-4,34.73,34.73,0,0,1-8.64-7.12,42.11,42.11,0,0,1-6-9,45.4,45.4,0,0,1-3.73-10.61,55.36,55.36,0,0,1-1.24-12,51.17,51.17,0,0,1,3.12-18.43A38.71,38.71,0,0,1,311,8.77a45.81,45.81,0,0,1,16.68-3,43.19,43.19,0,0,1,19.22,4.13,34.47,34.47,0,0,1,12.92,10.2q4.49,6.08,4.49,11.49a7.34,7.34,0,0,1-2.18,5.23,7.08,7.08,0,0,1-5.28,2.27,7.47,7.47,0,0,1-5.18-1.58,21.44,21.44,0,0,1-3.86-5.4,26.24,26.24,0,0,0-8.27-9.48,20.91,20.91,0,0,0-11.74-3.14q-11.1,0-17.68,8.08t-6.58,23q0,9.95,2.91,16.54a21.05,21.05,0,0,0,8.25,9.85,23.51,23.51,0,0,0,12.49,3.26,22.59,22.59,0,0,0,13.13-3.69,22.37,22.37,0,0,0,8.1-10.85,18.34,18.34,0,0,1,2.85-5.49c1.3-1.62,3.5-2.32,6.62-2.08a6,6,0,0,1,2.53.77A7.44,7.44,0,0,1,364.56,65.51Z"/>
      <path class="cls-1" d="M447.77,8.33a8.2,8.2,0,0,0-6.3-2.59,7.91,7.91,0,0,0-6.17,2.61q-2.35,2.63-2.36,7.87V83.36c0,3.48.77,6.12,2.33,7.87a7.83,7.83,0,0,0,6.2,2.66,8.17,8.17,0,0,0,6.27-2.64c1.64-1.72,2.45-4.36,2.45-7.89V16.22C450.19,12.69,449.38,10.05,447.77,8.33ZM387,5.74a7.93,7.93,0,0,0-6.24,2.61c-1.52,1.75-2.29,4.37-2.29,7.87V83.36c0,3.48.77,6.12,2.33,7.87a7.83,7.83,0,0,0,6.2,2.66,8.21,8.21,0,0,0,6.28-2.64,9.77,9.77,0,0,0,2.35-6.14V14.47a9.88,9.88,0,0,0-2.33-6.14A8.2,8.2,0,0,0,387,5.74Z"/>
      <path class="cls-1" d="M485.6,78.25v-62c0-3.53-.81-6.17-2.42-7.89a8.2,8.2,0,0,0-6.29-2.59,7.92,7.92,0,0,0-6.18,2.61c-1.56,1.75-2.36,4.37-2.36,7.87V81.84c0,3.72.82,6.42,2.47,8.08s4.34,2.5,8.09,2.5h6.72V78.25Z"/>
      <path class="cls-1" d="M598.16,9c-1.24-1.22-3.13-1.82-5.67-1.82h-42a12.42,12.42,0,0,0-5.55,1.07,6.49,6.49,0,0,0-3.2,3.43,15.61,15.61,0,0,0-1,6.07V69.87l16.06-16.09V41.43h-.11V20.51h35.87c2.54,0,4.43-.6,5.67-1.84A6.51,6.51,0,0,0,600,13.81,6.43,6.43,0,0,0,598.16,9Z"/>
      <path class="cls-1" d="M168.16,30.25,122,76.48a7,7,0,0,1-9.89,0h0a7,7,0,0,1,0-9.91l46.16-46.22a7,7,0,0,1,9.89,0h0A7,7,0,0,1,168.16,30.25Z"/>
      <path class="cls-1" d="M259.08,32.59,212.92,78.81a7,7,0,0,1-9.89,0h0a7,7,0,0,1,0-9.9l46.16-46.23a7,7,0,0,1,9.89,0h0A7,7,0,0,1,259.08,32.59Z"/>
      <ellipse class="cls-1" cx="328.42" cy="50.86" rx="11.77" ry="11.79"/>
      <ellipse class="cls-1" cx="414.68" cy="50.86" rx="11.77" ry="11.79"/>
      <polygon class="cls-1" points="534.12 76.1 534.12 76.43 518.13 92.44 478.17 92.44 478.17 76.1 534.12 76.1"/>
      <path class="cls-1" d="M541.11,92.77v-.33l13.6-13.62a8.17,8.17,0,0,1,5.77-2.39H588.9a8.16,8.16,0,0,1,8.16,8.17h0a8.16,8.16,0,0,1-8.16,8.17Z"/>
      <path class="cls-1" d="M566.41,44.09,555.1,55.42v-14h10.2A1.57,1.57,0,0,1,566.41,44.09Z"/>
    </g>
  </g>
</svg>
